<svg width="24" height="24" viewBox="0 0 24 24" fill="none" xmlns="http://www.w3.org/2000/svg">
<path fill-rule="evenodd" clip-rule="evenodd" d="M11.7331 0.0413937C11.2436 0.137491 10.9941 0.311151 10.047 1.21464C9.44999 1.78414 9.08062 2.10138 8.96327 2.1453C8.80157 2.20583 8.68656 2.19823 7.71109 2.06234C7.12029 1.98004 6.49707 1.91083 6.32613 1.90853C5.6252 1.89915 4.98307 2.23722 4.59329 2.82089C4.35586 3.17647 4.30706 3.34994 4.08005 4.64524C3.9764 5.23669 3.85942 5.78282 3.82005 5.85888C3.73334 6.02658 3.61054 6.10499 2.64854 6.60664C1.33884 7.28955 1.11225 7.46926 0.84376 8.03782C0.693186 8.35671 0.647718 8.58015 0.646498 9.00771C0.645325 9.40533 0.716272 9.60001 1.29712 10.793C1.67879 11.577 1.79328 11.8561 1.79328 12.0028C1.79328 12.1494 1.67879 12.4285 1.29712 13.2125C0.716272 14.4055 0.645325 14.6002 0.646498 14.9978C0.647718 15.4254 0.693186 15.6488 0.84376 15.9677C1.11225 16.5363 1.33884 16.716 2.64854 17.3989C3.61054 17.9005 3.73334 17.9789 3.82005 18.1467C3.85942 18.2227 3.97658 18.77 4.08047 19.3627C4.18436 19.9556 4.29847 20.5372 4.33399 20.6554C4.58817 21.4999 5.37483 22.0886 6.26157 22.0981C6.44222 22.1 7.08393 22.0322 7.68763 21.9476C8.68572 21.8075 8.80134 21.7996 8.96327 21.8602C9.08062 21.9042 9.44999 22.2214 10.047 22.7909C10.7676 23.4783 11.012 23.6827 11.2429 23.7907C11.8391 24.0698 12.4615 24.0698 13.0578 23.7907C13.2886 23.6827 13.5331 23.4783 14.2536 22.7909C14.8507 22.2214 15.22 21.9042 15.3374 21.8602C15.4991 21.7997 15.6141 21.8073 16.5896 21.9432C17.1804 22.0255 17.8036 22.0947 17.9745 22.097C18.6755 22.1064 19.3176 21.7683 19.7074 21.1846C19.9448 20.8291 19.9936 20.6556 20.2206 19.3603C20.3243 18.7688 20.4412 18.2227 20.4806 18.1467C20.5682 17.9773 20.6735 17.911 21.7758 17.3316C22.8146 16.7855 23.0448 16.6213 23.2965 16.2469C23.5449 15.8775 23.6503 15.5307 23.6541 15.0708C23.658 14.595 23.6102 14.4585 23.0035 13.2125C22.6219 12.4285 22.5074 12.1494 22.5074 12.0028C22.5074 11.8561 22.6219 11.577 23.0035 10.793C23.6102 9.54699 23.658 9.41049 23.6541 8.93474C23.6503 8.47486 23.5449 8.12805 23.2965 7.75863C23.0448 7.38424 22.8146 7.22006 21.7758 6.67397C20.6735 6.09453 20.5682 6.02827 20.4806 5.85888C20.4412 5.78282 20.3243 5.23669 20.2206 4.64524C19.9936 3.34994 19.9448 3.17647 19.7074 2.82089C19.3176 2.23722 18.6755 1.89915 17.9745 1.90853C17.8036 1.91083 17.1804 1.98004 16.5896 2.06234C15.6141 2.19823 15.4991 2.20583 15.3374 2.1453C15.22 2.10138 14.8507 1.78414 14.2536 1.21464C13.544 0.537692 13.2868 0.32199 13.0656 0.218479C12.6146 0.00746881 12.192 -0.0487443 11.7331 0.0413937ZM9.91011 5.83092C10.9938 6.06056 11.8182 7.0159 11.9033 8.14096C11.993 9.32626 11.175 10.4553 10.0058 10.7598C9.14941 10.9829 8.24432 10.7276 7.59726 10.0805C6.82801 9.31134 6.63009 8.2043 7.08806 7.23259C7.59055 6.16637 8.75765 5.58669 9.91011 5.83092ZM17.0659 6.84106C17.3695 7.02613 17.4942 7.43022 17.3383 7.72344C17.2567 7.87683 7.9938 17.1328 7.84829 17.2063C7.68913 17.2867 7.40328 17.2672 7.23478 17.1645C6.9312 16.9794 6.80648 16.5753 6.9624 16.2821C7.03827 16.1394 16.2977 6.88043 16.4437 6.80123C16.5941 6.71968 16.8988 6.7392 17.0659 6.84106ZM8.8873 7.27829C8.47649 7.474 8.2476 7.83526 8.24333 8.29467C8.23728 8.94676 8.72875 9.44202 9.38191 9.44202C10.5332 9.44202 10.9537 7.9428 9.97247 7.33624C9.65481 7.13982 9.22603 7.11692 8.8873 7.27829ZM15.5789 13.2515C16.2408 13.448 16.8822 13.9645 17.1685 14.5315C17.6535 15.4924 17.4969 16.6571 16.782 17.405C15.9663 18.2584 14.8429 18.4706 13.8161 17.9652C12.9925 17.5598 12.4667 16.7814 12.3973 15.8646C12.3086 14.6919 13.1218 13.5586 14.2747 13.248C14.6136 13.1568 15.2656 13.1585 15.5789 13.2515ZM14.6607 14.5782C13.6676 14.8357 13.4605 16.1329 14.327 16.6686C14.6385 16.8612 15.0368 16.8886 15.3799 16.7409C16.2624 16.3613 16.293 15.1151 15.4306 14.6751C15.231 14.5733 14.8599 14.5266 14.6607 14.5782Z" fill="#FF4545"/>
</svg>
