<svg width="14" height="14" viewBox="0 0 14 14" fill="none" xmlns="http://www.w3.org/2000/svg">
<path fill-rule="evenodd" clip-rule="evenodd" d="M6.75613 0.0424205C6.6897 0.0658954 6.58388 0.136539 6.52101 0.19944C6.3037 0.416733 6.31604 0.221245 6.31604 3.44767V6.3156H3.44827C0.222821 6.3156 0.417421 6.30335 0.200715 6.52009C-0.0669051 6.7877 -0.0669051 7.21151 0.200715 7.47911C0.417421 7.69586 0.222821 7.6836 3.44827 7.6836H6.31604V10.5515C6.31604 13.7772 6.30378 13.5826 6.52052 13.7993C6.78811 14.0669 7.21189 14.0669 7.47948 13.7993C7.69622 13.5826 7.68396 13.7772 7.68396 10.5515V7.6836H10.5517C13.7772 7.6836 13.5826 7.69586 13.7993 7.47911C14.0669 7.21151 14.0669 6.7877 13.7993 6.52009C13.5826 6.30335 13.7772 6.3156 10.5517 6.3156H7.68396V3.44767C7.68396 0.222039 7.69622 0.416651 7.47948 0.199932C7.28967 0.010081 7.01622 -0.0494544 6.75613 0.0424205Z" fill="#FF4545"/>
</svg>
