<svg width="47" height="46" viewBox="0 0 47 46" fill="none" xmlns="http://www.w3.org/2000/svg">
<path fill-rule="evenodd" clip-rule="evenodd" d="M10.1496 0.0854225C8.87987 0.430382 7.58667 1.67156 7.08886 3.02328C6.82453 3.7408 6.74046 4.25942 6.47428 6.81486C6.34491 8.05675 6.21637 9.19981 6.18863 9.3551L6.13819 9.63735L5.02001 9.63981C3.7574 9.64268 3.31914 9.73013 2.58006 10.1266C1.84999 10.5183 0.893795 11.6025 0.545756 12.4334C-0.0195791 13.7829 8.3164e-05 13.2221 8.3164e-05 28.0092C8.3164e-05 42.625 -0.0113099 42.2726 0.495865 43.3906C0.804764 44.0716 1.66871 45.0522 2.24893 45.3803C3.36388 46.0111 2.13858 45.9705 20.053 45.9705C34.6168 45.9705 36.4614 45.953 36.9578 45.8093C38.3235 45.4139 39.4994 44.3788 40.1104 43.0341C40.4488 42.2894 40.4695 42.1889 40.5018 41.1367L40.5359 40.0256L41.0541 39.8584C41.3392 39.7666 41.8499 39.529 42.1892 39.3305C43.2662 38.7006 44.0664 37.3593 44.3271 35.747C44.399 35.3016 45.047 29.1055 45.767 21.9778C47.014 9.63314 47.0708 8.98366 46.9636 8.28543C46.6673 6.35556 45.3766 4.73504 43.6396 4.11245C43.1749 3.94577 11.8153 -0.012492 11.0593 2.9645e-05C10.7106 0.0058799 10.3012 0.0442655 10.1496 0.0854225ZM27.126 4.4998C37.8202 5.88087 43.093 6.60045 43.3317 6.71171C44.0146 7.02988 44.5844 7.84861 44.7007 8.67852C44.76 9.10231 42.0452 35.6216 41.8982 36.0534C41.7214 36.573 40.9511 37.3491 40.6122 37.3491C40.5454 37.3491 40.5157 33.7795 40.5157 25.7479C40.5157 14.2648 40.5138 14.1404 40.3243 13.5086C39.7669 11.6499 38.4931 10.3016 36.8517 9.83266C36.1945 9.64494 35.632 9.63735 22.3033 9.63735H8.43848L8.49251 9.20114C8.52218 8.96128 8.64861 7.7823 8.77347 6.58126C9.02412 4.16921 9.16019 3.69226 9.76825 3.09594C10.0976 2.77284 10.6479 2.52529 11.1713 2.46473C11.2279 2.45816 18.4075 3.37398 27.126 4.4998ZM36.5874 12.4075C37.1788 12.6547 37.7599 13.2856 38.0535 13.9994C38.2644 14.5118 38.2647 14.5203 38.2913 20.067L38.318 25.6215L31.9655 29.7561C28.4716 32.0301 25.462 33.9509 25.2776 34.0245C25.0931 34.0981 24.646 34.1604 24.284 34.1628C23.2474 34.1699 22.9561 33.9468 19.3314 30.3698C17.5868 28.6481 15.9344 27.0698 15.6594 26.8624C13.9576 25.5792 11.7704 25.5852 10.0117 26.8781C9.7338 27.0825 7.90457 28.552 5.94671 30.144C3.98885 31.7359 2.36607 33.0384 2.34044 33.0384C2.3148 33.0384 2.29385 28.8638 2.29385 23.7616C2.29385 13.4243 2.26804 13.8652 2.92277 13.0108C3.10184 12.7771 3.41598 12.5008 3.62096 12.3968C3.97837 12.2155 4.65047 12.2077 20.0461 12.2055C35.8505 12.2032 36.1062 12.2064 36.5874 12.4075ZM22.7186 16.3529C21.9404 16.5636 21.0658 17.1266 20.4505 17.8127C18.5778 19.9016 18.5625 23.2218 20.4162 25.2767C21.4283 26.3988 22.443 26.881 23.7874 26.879C25.1693 26.8768 26.2391 26.39 27.1859 25.3325C28.1326 24.2749 28.5684 23.0798 28.5703 21.5361C28.5716 20.4723 28.4022 19.7714 27.9241 18.8623C26.8788 16.8748 24.6892 15.8193 22.7186 16.3529ZM24.645 18.9336C26.3465 19.5812 26.8613 22.1122 25.5823 23.5411C24.3057 24.9671 22.0362 24.391 21.4576 22.4942C20.7841 20.2864 22.6686 18.1813 24.645 18.9336ZM13.9642 28.7025C14.1965 28.8287 15.8465 30.3717 17.7115 32.2065C19.5442 34.0096 21.2484 35.6316 21.4986 35.811C22.6011 36.6012 24.3194 36.9367 25.5134 36.5949C26.321 36.3637 26.6963 36.1368 32.7425 32.227C35.7189 30.3024 38.1893 28.7276 38.2323 28.7276C38.3504 28.7276 38.3314 40.8232 38.2123 41.4431C38.0955 42.0518 37.5642 42.7837 36.9901 43.1267L36.6109 43.3533L20.3022 43.3837C8.51483 43.4055 3.89568 43.3822 3.64035 43.2996C3.1759 43.1492 2.55066 42.4421 2.40687 41.9045C2.32978 41.6163 2.29523 40.6542 2.29826 38.8767L2.30268 36.2714L6.12257 33.141C11.5744 28.6733 11.487 28.7418 11.9412 28.5752C12.5206 28.3627 13.4463 28.4209 13.9642 28.7025Z" fill="#B3B9C4"/>
</svg>
