<svg width="55" height="55" viewBox="0 0 55 55" fill="none" xmlns="http://www.w3.org/2000/svg">
<g filter="url(#filter0_d_71_208)">
<path fill-rule="evenodd" clip-rule="evenodd" d="M14.1496 0.185032C12.8799 0.529992 11.5867 1.77117 11.0889 3.12289C10.8245 3.84041 10.7405 4.35903 10.4743 6.91447C10.3449 8.15636 10.2164 9.29942 10.1886 9.45471L10.1382 9.73696L9.02001 9.73942C7.7574 9.74229 7.31914 9.82974 6.58006 10.2262C5.84998 10.6179 4.8938 11.7021 4.54576 12.533C3.98042 13.8825 4.00008 13.3217 4.00008 28.1088C4.00008 42.7246 3.98869 42.3722 4.49586 43.4903C4.80476 44.1712 5.66871 45.1518 6.24893 45.48C7.36388 46.1108 6.13858 46.0701 24.053 46.0701C38.6168 46.0701 40.4614 46.0526 40.9578 45.9089C42.3235 45.5135 43.4994 44.4784 44.1104 43.1337C44.4488 42.389 44.4695 42.2885 44.5018 41.2363L44.5359 40.1252L45.0541 39.958C45.3392 39.8662 45.8499 39.6286 46.1892 39.4301C47.2662 38.8002 48.0664 37.4589 48.3271 35.8466C48.399 35.4012 49.047 29.2051 49.767 22.0774C51.014 9.73275 51.0708 9.08327 50.9636 8.38504C50.6673 6.45517 49.3766 4.83465 47.6396 4.21206C47.1749 4.04538 15.8153 0.0871174 15.0593 0.099639C14.7106 0.105489 14.3012 0.143875 14.1496 0.185032ZM31.126 4.59941C41.8202 5.98048 47.093 6.70006 47.3317 6.81132C48.0146 7.12949 48.5844 7.94822 48.7007 8.77813C48.76 9.20191 46.0452 35.7212 45.8982 36.153C45.7214 36.6727 44.9511 37.4487 44.6122 37.4487C44.5454 37.4487 44.5157 33.8791 44.5157 25.8475C44.5157 14.3644 44.5138 14.24 44.3243 13.6082C43.7669 11.7495 42.4931 10.4012 40.8517 9.93227C40.1945 9.74455 39.632 9.73696 26.3033 9.73696H12.4385L12.4925 9.30075C12.5222 9.06089 12.6486 7.88191 12.7735 6.68087C13.0241 4.26882 13.1602 3.79187 13.7683 3.19555C14.0976 2.87245 14.6479 2.6249 15.1713 2.56434C15.2278 2.55777 22.4075 3.47359 31.126 4.59941ZM40.5874 12.5071C41.1788 12.7544 41.7599 13.3853 42.0535 14.099C42.2644 14.6115 42.2647 14.6199 42.2913 20.1666L42.318 25.7211L35.9655 29.8557C32.4716 32.1297 29.462 34.0505 29.2776 34.1241C29.0931 34.1977 28.646 34.26 28.284 34.2625C27.2474 34.2695 26.9561 34.0464 23.3314 30.4694C21.5868 28.7477 19.9344 27.1694 19.6594 26.9621C17.9576 25.6788 15.7704 25.6849 14.0117 26.9778C13.7338 27.1821 11.9046 28.6516 9.94671 30.2436C7.98885 31.8355 6.36607 33.138 6.34044 33.138C6.3148 33.138 6.29385 28.9635 6.29385 23.8612C6.29385 13.5239 6.26804 13.9648 6.92277 13.1104C7.10184 12.8767 7.41598 12.6004 7.62096 12.4964C7.97837 12.3151 8.65047 12.3073 24.0461 12.3051C39.8505 12.3029 40.1062 12.306 40.5874 12.5071ZM26.7186 16.4525C25.9404 16.6632 25.0658 17.2262 24.4505 17.9123C22.5778 20.0012 22.5625 23.3215 24.4162 25.3763C25.4283 26.4984 26.443 26.9806 27.7874 26.9786C29.1693 26.9764 30.2391 26.4896 31.1859 25.4321C32.1326 24.3745 32.5684 23.1794 32.5703 21.6358C32.5716 20.5719 32.4022 19.871 31.9241 18.9619C30.8788 16.9744 28.6892 15.9189 26.7186 16.4525ZM28.645 19.0332C30.3465 19.6808 30.8613 22.2119 29.5823 23.6408C28.3057 25.0667 26.0362 24.4906 25.4576 22.5938C24.7841 20.386 26.6686 18.2809 28.645 19.0332ZM17.9642 28.8021C18.1965 28.9284 19.8465 30.4713 21.7115 32.3061C23.5442 34.1092 25.2484 35.7312 25.4986 35.9106C26.6011 36.7008 28.3194 37.0363 29.5134 36.6945C30.321 36.4633 30.6963 36.2365 36.7425 32.3266C39.7189 30.402 42.1892 28.8273 42.2323 28.8273C42.3504 28.8273 42.3314 40.9228 42.2123 41.5427C42.0955 42.1514 41.5642 42.8833 40.9901 43.2263L40.6109 43.4529L24.3022 43.4833C12.5148 43.5051 7.89568 43.4818 7.64035 43.3992C7.1759 43.2489 6.55066 42.5417 6.40687 42.0041C6.32978 41.7159 6.29523 40.7538 6.29826 38.9763L6.30268 36.371L10.1226 33.2406C15.5744 28.7729 15.487 28.8414 15.9412 28.6748C16.5206 28.4623 17.4463 28.5205 17.9642 28.8021Z" fill="#091E42" fill-opacity="0.31" shape-rendering="crispEdges"/>
</g>
<defs>
<filter id="filter0_d_71_208" x="0" y="0.0996094" width="55" height="53.9707" filterUnits="userSpaceOnUse" color-interpolation-filters="sRGB">
<feFlood flood-opacity="0" result="BackgroundImageFix"/>
<feColorMatrix in="SourceAlpha" type="matrix" values="0 0 0 0 0 0 0 0 0 0 0 0 0 0 0 0 0 0 127 0" result="hardAlpha"/>
<feOffset dy="4"/>
<feGaussianBlur stdDeviation="2"/>
<feComposite in2="hardAlpha" operator="out"/>
<feColorMatrix type="matrix" values="0 0 0 0 0 0 0 0 0 0 0 0 0 0 0 0 0 0 0.25 0"/>
<feBlend mode="normal" in2="BackgroundImageFix" result="effect1_dropShadow_71_208"/>
<feBlend mode="normal" in="SourceGraphic" in2="effect1_dropShadow_71_208" result="shape"/>
</filter>
</defs>
</svg>
