<svg width="47" height="47" viewBox="0 0 47 47" fill="none" xmlns="http://www.w3.org/2000/svg">
<path fill-rule="evenodd" clip-rule="evenodd" d="M10.1496 0.185032C8.87987 0.529992 7.58667 1.77117 7.08886 3.12289C6.82453 3.84041 6.74046 4.35903 6.47428 6.91447C6.34491 8.15636 6.21637 9.29942 6.18863 9.45471L6.13819 9.73696L5.02001 9.73942C3.7574 9.74229 3.31914 9.82974 2.58006 10.2262C1.84998 10.6179 0.893795 11.7021 0.545756 12.533C-0.019579 13.8825 8.3164e-05 13.3217 8.3164e-05 28.1088C8.3164e-05 42.7246 -0.0113099 42.3722 0.495865 43.4903C0.804764 44.1712 1.66871 45.1518 2.24893 45.48C3.36388 46.1108 2.13858 46.0701 20.053 46.0701C34.6168 46.0701 36.4614 46.0526 36.9578 45.9089C38.3235 45.5135 39.4994 44.4784 40.1104 43.1337C40.4488 42.389 40.4695 42.2885 40.5018 41.2363L40.5359 40.1252L41.0541 39.958C41.3392 39.8662 41.8499 39.6286 42.1892 39.4301C43.2662 38.8002 44.0664 37.4589 44.3271 35.8466C44.399 35.4012 45.047 29.2051 45.767 22.0774C47.014 9.73275 47.0708 9.08327 46.9636 8.38504C46.6673 6.45517 45.3766 4.83465 43.6396 4.21206C43.1749 4.04538 11.8153 0.0871174 11.0593 0.099639C10.7106 0.105489 10.3012 0.143875 10.1496 0.185032ZM27.126 4.59941C37.8202 5.98048 43.093 6.70006 43.3317 6.81132C44.0146 7.12949 44.5844 7.94822 44.7007 8.77813C44.76 9.20191 42.0452 35.7212 41.8982 36.153C41.7214 36.6727 40.9511 37.4487 40.6122 37.4487C40.5454 37.4487 40.5157 33.8791 40.5157 25.8475C40.5157 14.3644 40.5138 14.24 40.3243 13.6082C39.7669 11.7495 38.4931 10.4012 36.8517 9.93227C36.1945 9.74455 35.632 9.73696 22.3033 9.73696H8.43848L8.49251 9.30075C8.52218 9.06089 8.64861 7.88191 8.77347 6.68087C9.02412 4.26882 9.16019 3.79187 9.76825 3.19555C10.0976 2.87245 10.6479 2.6249 11.1713 2.56434C11.2278 2.55777 18.4075 3.47359 27.126 4.59941ZM36.5874 12.5071C37.1788 12.7544 37.7599 13.3853 38.0535 14.099C38.2644 14.6115 38.2647 14.6199 38.2913 20.1666L38.318 25.7211L31.9655 29.8557C28.4716 32.1297 25.462 34.0505 25.2776 34.1241C25.0931 34.1977 24.646 34.26 24.284 34.2625C23.2474 34.2695 22.9561 34.0464 19.3314 30.4694C17.5868 28.7477 15.9344 27.1694 15.6594 26.9621C13.9576 25.6788 11.7704 25.6849 10.0117 26.9778C9.7338 27.1821 7.90457 28.6516 5.94671 30.2436C3.98885 31.8355 2.36607 33.138 2.34044 33.138C2.3148 33.138 2.29385 28.9635 2.29385 23.8612C2.29385 13.5239 2.26804 13.9648 2.92277 13.1104C3.10184 12.8767 3.41598 12.6004 3.62096 12.4964C3.97837 12.3151 4.65047 12.3073 20.0461 12.3051C35.8505 12.3029 36.1062 12.306 36.5874 12.5071ZM22.7186 16.4525C21.9404 16.6632 21.0658 17.2262 20.4505 17.9123C18.5778 20.0012 18.5625 23.3215 20.4162 25.3763C21.4283 26.4984 22.443 26.9806 23.7874 26.9786C25.1693 26.9764 26.2391 26.4896 27.1859 25.4321C28.1326 24.3745 28.5684 23.1794 28.5703 21.6358C28.5716 20.5719 28.4022 19.871 27.9241 18.9619C26.8788 16.9744 24.6892 15.9189 22.7186 16.4525ZM24.645 19.0332C26.3465 19.6808 26.8613 22.2119 25.5823 23.6408C24.3057 25.0667 22.0362 24.4906 21.4576 22.5938C20.7841 20.386 22.6686 18.2809 24.645 19.0332ZM13.9642 28.8021C14.1965 28.9284 15.8465 30.4713 17.7115 32.3061C19.5442 34.1092 21.2484 35.7312 21.4986 35.9106C22.6011 36.7008 24.3194 37.0363 25.5134 36.6945C26.321 36.4633 26.6963 36.2365 32.7425 32.3266C35.7189 30.402 38.1892 28.8273 38.2323 28.8273C38.3504 28.8273 38.3314 40.9228 38.2123 41.5427C38.0955 42.1514 37.5642 42.8833 36.9901 43.2263L36.6109 43.4529L20.3022 43.4833C8.51483 43.5051 3.89568 43.4818 3.64035 43.3992C3.1759 43.2489 2.55066 42.5417 2.40687 42.0041C2.32978 41.7159 2.29523 40.7538 2.29826 38.9763L2.30268 36.371L6.12257 33.2406C11.5744 28.7729 11.487 28.8414 11.9412 28.6748C12.5206 28.4623 13.4463 28.5205 13.9642 28.8021Z" fill="#091E42" fill-opacity="0.31"/>
</svg>
