<svg width="47" height="42" viewBox="0 0 47 42" fill="none" xmlns="http://www.w3.org/2000/svg">
<path fill-rule="evenodd" clip-rule="evenodd" d="M10.1496 0.105811C8.87987 0.414795 7.58667 1.52653 7.08886 2.73728C6.82453 3.37997 6.74046 3.84451 6.47428 6.13343C6.34491 7.24581 6.21637 8.26966 6.18863 8.40875L6.13819 8.66157L5.02001 8.66377C3.7574 8.66635 3.31914 8.74467 2.58006 9.09981C1.84998 9.45062 0.893795 10.4218 0.545756 11.166C-0.019579 12.3748 8.3164e-05 11.8725 8.3164e-05 25.1174C8.3164e-05 38.2089 -0.0113099 37.8933 0.495865 38.8947C0.804764 39.5047 1.66871 40.383 2.24893 40.6769C3.36388 41.242 2.13858 41.2055 20.053 41.2055C34.6168 41.2055 36.4614 41.1898 36.9578 41.0611C38.3235 40.707 39.4994 39.7799 40.1104 38.5754C40.4488 37.9083 40.4695 37.8183 40.5018 36.8758L40.5359 35.8807L41.0541 35.7309C41.3392 35.6486 41.8499 35.4358 42.1892 35.258C43.2662 34.6938 44.0664 33.4924 44.3271 32.0483C44.399 31.6493 45.047 26.0993 45.767 19.715C47.014 8.6578 47.0708 8.07605 46.9636 7.45064C46.6673 5.72204 45.3766 4.27052 43.6396 3.71286C43.1749 3.56356 11.8153 0.0181077 11.0593 0.0293234C10.7106 0.0345636 10.3012 0.0689459 10.1496 0.105811ZM27.126 4.05981C37.8202 5.29685 43.093 5.94139 43.3317 6.04104C44.0146 6.32603 44.5844 7.05937 44.7007 7.80274C44.76 8.18232 42.0452 31.9359 41.8982 32.3227C41.7214 32.7881 40.9511 33.4832 40.6122 33.4832C40.5454 33.4832 40.5157 30.2859 40.5157 23.092C40.5157 12.8064 40.5138 12.695 40.3243 12.1291C39.7669 10.4643 38.4931 9.25655 36.8517 8.83651C36.1945 8.66837 35.632 8.66157 22.3033 8.66157H8.43848L8.49251 8.27086C8.52218 8.05601 8.64861 6.99999 8.77347 5.9242C9.02412 3.7637 9.16019 3.33649 9.76825 2.80236C10.0976 2.51296 10.6479 2.29122 11.1713 2.23698C11.2278 2.2311 18.4075 3.05141 27.126 4.05981ZM36.5874 11.1428C37.1788 11.3643 37.7599 11.9294 38.0535 12.5687C38.2644 13.0277 38.2647 13.0352 38.2913 18.0035L38.318 22.9787L31.9655 26.6821C28.4716 28.719 25.462 30.4395 25.2776 30.5054C25.0931 30.5713 24.646 30.6271 24.284 30.6293C23.2474 30.6356 22.9561 30.4358 19.3314 27.2319C17.5868 25.6897 15.9344 24.276 15.6594 24.0903C13.9576 22.9408 11.7704 22.9463 10.0117 24.1043C9.7338 24.2874 7.90457 25.6036 5.94671 27.0296C3.98885 28.4555 2.36607 29.6221 2.34044 29.6221C2.3148 29.6221 2.29385 25.8829 2.29385 21.3128C2.29385 12.0536 2.26804 12.4485 2.92277 11.6832C3.10184 11.4739 3.41598 11.2264 3.62096 11.1333C3.97837 10.9708 4.65047 10.9638 20.0461 10.9619C35.8505 10.9599 36.1062 10.9627 36.5874 11.1428ZM22.7186 14.6768C21.9404 14.8655 21.0658 15.3698 20.4505 15.9843C18.5778 17.8553 18.5625 20.8293 20.4162 22.6699C21.4283 23.675 22.443 24.1069 23.7874 24.1051C25.1693 24.1031 26.2391 23.6671 27.1859 22.7198C28.1326 21.7726 28.5684 20.7021 28.5703 19.3194C28.5716 18.3666 28.4022 17.7388 27.9241 16.9244C26.8788 15.1443 24.6892 14.1988 22.7186 14.6768ZM24.645 16.9883C26.3465 17.5684 26.8613 19.8355 25.5823 21.1153C24.3057 22.3926 22.0362 21.8765 21.4576 20.1775C20.7841 18.2 22.6686 16.3145 24.645 16.9883ZM13.9642 25.7384C14.1965 25.8515 15.8465 27.2335 17.7115 28.877C19.5442 30.492 21.2484 31.9449 21.4986 32.1055C22.6011 32.8133 24.3194 33.1139 25.5134 32.8077C26.321 32.6006 26.6963 32.3974 32.7425 28.8954C35.7189 27.1715 38.1892 25.7609 38.2323 25.7609C38.3504 25.7609 38.3314 36.5951 38.2123 37.1503C38.0955 37.6955 37.5642 38.3511 36.9901 38.6583L36.6109 38.8613L20.3022 38.8885C8.51483 38.9081 3.89568 38.8872 3.64035 38.8132C3.1759 38.6785 2.55066 38.0451 2.40687 37.5636C2.32978 37.3054 2.29523 36.4436 2.29826 34.8516L2.30268 32.518L6.12257 29.714C11.5744 25.7122 11.487 25.7736 11.9412 25.6244C12.5206 25.434 13.4463 25.4862 13.9642 25.7384Z" fill="#091E42" fill-opacity="0.31"/>
</svg>
