<svg width="20" height="24" viewBox="0 0 20 24" fill="none" xmlns="http://www.w3.org/2000/svg">
<path fill-rule="evenodd" clip-rule="evenodd" d="M9.36027 0.063681C7.68427 0.367755 6.29395 1.55476 5.75221 3.14394C5.62507 3.51686 5.49667 4.21338 5.49634 4.53144L5.49615 4.72752L4.24071 4.74263C2.99419 4.7577 2.9834 4.75869 2.71894 4.88263C2.21728 5.11781 1.84745 5.57024 1.74326 6.07626C1.71717 6.20293 1.44998 9.40056 1.14948 13.1821C0.641717 19.5718 0.606705 20.0909 0.654107 20.527C0.828226 22.1289 1.87228 23.3712 3.46366 23.8704L3.87699 24H10.1424H16.4079L16.8212 23.8704C18.4127 23.3712 19.4572 22.1282 19.6306 20.527C19.6778 20.0913 19.6423 19.5651 19.1353 13.1821C18.8349 9.40056 18.5678 6.20293 18.5417 6.07626C18.4374 5.57014 18.0676 5.11781 17.5659 4.88263C17.3015 4.75869 17.2907 4.7577 16.0442 4.74263L14.7887 4.72752L14.7885 4.53144C14.7883 4.21906 14.6607 3.51935 14.5388 3.1621C14.0754 1.80294 12.9868 0.709844 11.639 0.25019C10.917 0.00398321 10.071 -0.0652887 9.36027 0.063681ZM10.7876 1.47643C12.0574 1.73869 13.0442 2.72549 13.3065 3.99533C13.3473 4.19311 13.3808 4.4403 13.3808 4.54463V4.73433H14.0847H14.7887V6.36212C14.7887 7.90985 14.784 7.99978 14.692 8.18966C14.5899 8.40058 14.3085 8.58277 14.0847 8.58277C13.8805 8.58277 13.5913 8.4048 13.4833 8.21266C13.3833 8.03479 13.3808 7.98959 13.3808 6.38231V4.73433H10.1424H6.90412V6.38231C6.90412 7.98959 6.90158 8.03479 6.80162 8.21266C6.69363 8.4048 6.40438 8.58277 6.20013 8.58277C5.97636 8.58277 5.69496 8.40058 5.59283 8.18966C5.50089 7.99978 5.49615 7.90985 5.49615 6.36212V4.73433H6.20013H6.90412V4.54463C6.90412 4.4403 6.93753 4.19311 6.97841 3.99533C7.33979 2.24556 9.04676 1.11684 10.7876 1.47643ZM13.1469 11.8142C13.3358 11.9148 13.5197 12.205 13.5208 12.4046C13.5212 12.4804 13.48 12.6282 13.4292 12.7332C13.315 12.9689 9.66504 16.6255 9.4706 16.699C9.27523 16.7729 8.95928 16.7597 8.82707 16.6721C8.59734 16.5201 6.94246 14.8443 6.8539 14.6741C6.73798 14.4513 6.73948 14.2935 6.86 14.0446C6.93021 13.8995 7.0114 13.8183 7.15642 13.7481C7.56924 13.5483 7.77316 13.6493 8.56974 14.4483L9.17939 15.0598L10.7756 13.4661C11.6535 12.5895 12.4351 11.8398 12.5125 11.8C12.7017 11.703 12.9481 11.7085 13.1469 11.8142Z" fill="#FF4545"/>
</svg>
