<svg width="28" height="24" viewBox="0 0 28 24" fill="none" xmlns="http://www.w3.org/2000/svg">
<path fill-rule="evenodd" clip-rule="evenodd" d="M8.81671 0.0983119C8.71173 0.153849 8.52847 0.326862 8.40941 0.482749C7.95946 1.07221 7.75456 1.66994 7.75456 2.39341C7.75456 3.17578 7.99855 3.82094 8.53268 4.45095C8.92324 4.91162 9.03169 5.1597 9.03249 5.59439C9.03318 5.96095 8.87797 6.39735 8.69221 6.55111C8.55316 6.66623 8.39438 7.00943 8.39438 7.19488C8.39438 7.4596 8.58296 7.76694 8.81954 7.88773C9.23627 8.10043 9.62128 7.97341 9.97867 7.50532C10.4288 6.91559 10.6337 6.31797 10.6337 5.59439C10.6337 4.81202 10.3897 4.16686 9.85561 3.53685C9.46505 3.07618 9.35661 2.8281 9.35581 2.39341C9.35511 2.02685 9.51032 1.59045 9.69608 1.43669C9.83513 1.32157 9.99391 0.978367 9.99391 0.792924C9.99391 0.528203 9.80533 0.220856 9.56876 0.100072C9.30846 -0.032768 9.06565 -0.0333549 8.81671 0.0983119ZM13.6153 0.0983119C13.5103 0.153849 13.3271 0.326862 13.208 0.482749C12.7581 1.07221 12.5532 1.66994 12.5532 2.39341C12.5532 3.17578 12.7972 3.82094 13.3313 4.45095C13.7218 4.91162 13.8303 5.1597 13.8311 5.59439C13.8318 5.96095 13.6766 6.39735 13.4908 6.55111C13.3518 6.66623 13.193 7.00943 13.193 7.19488C13.193 7.4596 13.3816 7.76694 13.6181 7.88773C14.0349 8.10043 14.4199 7.97341 14.7773 7.50532C15.2274 6.91559 15.4323 6.31797 15.4323 5.59439C15.4323 4.81202 15.1884 4.16686 14.6542 3.53685C14.2637 3.07618 14.1552 2.8281 14.1544 2.39341C14.1537 2.02685 14.3089 1.59045 14.4947 1.43669C14.6337 1.32157 14.7925 0.978367 14.7925 0.792924C14.7925 0.528203 14.6039 0.220856 14.3674 0.100072C14.1071 -0.032768 13.8643 -0.0333549 13.6153 0.0983119ZM18.4139 0.0983119C18.3089 0.153849 18.1257 0.326862 18.0066 0.482749C17.5567 1.07221 17.3518 1.66994 17.3518 2.39341C17.3518 3.17578 17.5958 3.82094 18.1299 4.45095C18.5205 4.91162 18.6289 5.1597 18.6297 5.59439C18.6304 5.96095 18.4752 6.39735 18.2894 6.55111C18.1504 6.66623 17.9916 7.00943 17.9916 7.19488C17.9916 7.4596 18.1802 7.76694 18.4168 7.88773C18.8335 8.10043 19.2185 7.97341 19.5759 7.50532C20.026 6.91559 20.2309 6.31797 20.2309 5.59439C20.2309 4.81202 19.987 4.16686 19.4528 3.53685C19.0623 3.07618 18.9538 2.8281 18.953 2.39341C18.9523 2.02685 19.1075 1.59045 19.2933 1.43669C19.4324 1.32157 19.5911 0.978367 19.5911 0.792924C19.5911 0.528203 19.4025 0.220856 19.166 0.100072C18.9057 -0.032768 18.6629 -0.0333549 18.4139 0.0983119ZM0.757176 11.3061C0.630706 11.3729 0.515859 11.4937 0.443027 11.6366C0.337617 11.8434 0.330952 11.9142 0.36177 12.5026C0.391468 13.07 0.472831 13.694 0.586185 14.2237L0.623294 14.3971H13.9928H27.3622L27.3993 14.2237C27.5127 13.694 27.594 13.07 27.6237 12.5026C27.6546 11.914 27.6479 11.8434 27.5424 11.6363C27.4658 11.4862 27.3572 11.3751 27.217 11.3035C27.0078 11.1967 26.9327 11.1961 13.9816 11.1984C1.11883 11.2008 0.954025 11.2021 0.757176 11.3061ZM1.30907 16.3577C1.6414 17.099 2.19703 17.9643 2.81498 18.7031C3.71898 19.7839 4.80038 20.6292 6.14303 21.3045L6.74152 21.6056V22.4848C6.74152 23.5041 6.79255 23.6757 7.1565 23.8804L7.36918 24H13.9888C20.518 24 20.6113 23.9985 20.8188 23.8926C21.1859 23.7052 21.244 23.513 21.244 22.4858V21.6074L21.8082 21.3304C23.1188 20.6867 24.3718 19.6921 25.2909 18.5659C25.8125 17.9268 26.4029 16.9799 26.7011 16.3043L26.8365 15.9976H13.9921H1.14762L1.30907 16.3577Z" fill="#FF4545"/>
</svg>
