<svg width="21" height="24" viewBox="0 0 21 24" fill="none" xmlns="http://www.w3.org/2000/svg">
<path fill-rule="evenodd" clip-rule="evenodd" d="M9.47158 0.118933C9.28774 0.177129 8.99197 0.313488 8.81432 0.421883C8.52169 0.600385 2.20953 5.77486 1.62714 6.31372C1.09265 6.80816 0.624812 7.7068 0.439462 8.595C0.349041 9.0283 0.345849 9.23697 0.345849 14.6977C0.345849 21.1011 0.326601 20.7492 0.73082 21.7311C0.892179 22.1231 1.01307 22.3145 1.37701 22.7542C1.74095 23.1939 1.89935 23.3399 2.22376 23.5349C2.44324 23.6668 2.7899 23.8254 2.99417 23.8874C3.35637 23.9972 3.53759 24 10.3457 24C17.1538 24 17.335 23.9972 17.6972 23.8874C17.9015 23.8254 18.2482 23.6668 18.4677 23.5349C18.7921 23.3399 18.9505 23.1939 19.3144 22.7542C19.6783 22.3145 19.7992 22.1231 19.9606 21.7311C20.3648 20.7492 20.3456 21.1011 20.3456 14.6977C20.3456 9.23697 20.3424 9.0283 20.2519 8.595C20.0772 7.75762 19.6535 6.91361 19.1484 6.39704C18.8034 6.04423 12.2047 0.616948 11.8832 0.421599C11.1991 0.00594359 10.2173 -0.117312 9.47158 0.118933ZM13.0436 18.6353C13.2087 18.7187 13.3504 18.9695 13.3504 19.1787C13.3504 19.3878 13.2087 19.6386 13.0436 19.722C12.8072 19.8413 7.88424 19.8413 7.64781 19.722C7.48269 19.6386 7.34105 19.3878 7.34105 19.1787C7.34105 18.9755 7.4811 18.72 7.63753 18.6378C7.86151 18.52 12.8108 18.5178 13.0436 18.6353Z" fill="#FF4545"/>
</svg>
