<svg width="20" height="20" viewBox="0 0 20 20" fill="none" xmlns="http://www.w3.org/2000/svg">
<path fill-rule="evenodd" clip-rule="evenodd" d="M9.19522 0.0220058C5.77037 0.327143 2.78914 2.2878 1.16354 5.30412C-0.131919 7.70786 -0.359638 10.673 0.550805 13.2828C1.4384 15.8271 3.41628 17.9974 5.84826 19.0956C9.68563 20.8285 14.0886 20.0288 17.0602 17.0593C20.98 13.1422 20.98 6.85074 17.0602 2.93411C15.4844 1.35964 13.4804 0.364933 11.3119 0.0810381C10.7288 0.0047147 9.70867 -0.0237647 9.19522 0.0220058ZM14.7311 9.4588C14.9532 9.61 15.0241 9.74007 15.0241 9.9967C15.0241 10.2533 14.9532 10.3834 14.7311 10.5346L14.6018 10.6226H10.009C4.91955 10.6226 5.29404 10.6425 5.07986 10.3617C4.99008 10.2439 4.97024 10.1785 4.97024 9.99975C4.97024 9.75189 5.07 9.57264 5.27886 9.4453C5.39654 9.37352 5.55255 9.37105 10.0012 9.37093L14.6018 9.37078L14.7311 9.4588Z" fill="#FF4545"/>
</svg>
