<svg width="24" height="24" viewBox="0 0 24 24" fill="none" xmlns="http://www.w3.org/2000/svg">
<path fill-rule="evenodd" clip-rule="evenodd" d="M8.00055 0.0702595C5.00599 0.536102 2.29621 2.55118 0.931848 5.3268C0.185839 6.84457 -0.00645006 7.71322 0.000163323 9.53531C0.00687691 11.3479 0.18614 12.1364 0.934454 13.6436C2.64532 17.0898 6.22826 19.2106 9.93567 18.9714C11.7248 18.856 13.6096 18.2095 14.9125 17.2645L15.4116 16.9025L18.9206 20.4011C21.2195 22.6929 22.5247 23.9231 22.7053 23.9679C23.4605 24.1554 24.1237 23.4922 23.9362 22.737C23.8914 22.5565 22.6612 21.2512 20.3694 18.9524L16.8708 15.4434L17.2328 14.9443C17.4318 14.6698 17.7906 14.0374 18.0298 13.539C20.273 8.86686 18.31 3.28146 13.6119 0.968677C13.0608 0.697428 12.2266 0.378984 11.7582 0.261146C10.7861 0.0166511 8.94596 -0.0768381 8.00055 0.0702595ZM11.3072 2.20398C14.039 2.96712 16.0898 5.05825 16.7773 7.78176C16.958 8.49721 16.958 10.4732 16.7773 11.1887C16.0854 13.9294 13.8977 16.1171 11.1569 16.809C10.4415 16.9897 8.46549 16.9897 7.75004 16.809C4.98585 16.1112 2.8359 13.9609 2.13067 11.1886C1.94921 10.4753 1.9482 8.49891 2.12897 7.78898C2.84151 4.99021 5.13275 2.71311 7.77419 2.17883C8.06398 2.12011 8.39134 2.05127 8.50156 2.02582C8.87171 1.94004 10.8011 2.06259 11.3072 2.20398Z" fill="#626F86"/>
</svg>
