<svg width="45" height="51" viewBox="0 0 45 51" fill="none" xmlns="http://www.w3.org/2000/svg">
<path fill-rule="evenodd" clip-rule="evenodd" d="M21.0997 0.0295552C17.8807 0.424452 15.185 1.73433 12.9468 3.99118C10.959 5.99546 9.81295 8.1348 9.22841 10.9323C8.98265 12.1079 8.98265 14.7402 9.22841 15.9158C9.81355 18.7163 10.9628 20.8601 12.9468 22.8523C14.9612 24.8751 17.1628 26.0602 19.9994 26.6489C21.1652 26.8908 23.8049 26.8906 25.0247 26.6484C27.7239 26.1126 29.9603 24.919 31.9662 22.9436C33.9808 20.9598 35.1806 18.7439 35.7716 15.9158C36.0173 14.7403 36.0173 12.1079 35.7716 10.9323C35.3873 9.09333 34.6749 7.38308 33.6543 5.84904C33.0245 4.90257 31.0705 2.94862 30.1435 2.33833C28.5312 1.27694 26.7929 0.548143 25.0787 0.215043C24.2726 0.0583601 21.8033 -0.0567599 21.0997 0.0295552ZM17.1252 30.0268C11.53 30.7023 6.47807 33.8693 3.22551 38.7405C1.31887 41.5958 0.225415 44.9572 0.0312701 48.5597C-0.0280437 49.661 -0.0159408 49.791 0.182205 50.1779C0.325639 50.4582 0.529386 50.6656 0.792347 50.7994C1.18434 50.9986 1.33697 51 22.5 51C43.663 51 43.8157 50.9986 44.2077 50.7994C44.4706 50.6656 44.6744 50.4582 44.8178 50.1779C45.0159 49.791 45.028 49.661 44.9687 48.5597C44.704 43.6472 42.824 39.3393 39.4066 35.8139C36.168 32.4731 31.982 30.4345 27.4155 29.9742C25.8979 29.8212 18.5156 29.859 17.1252 30.0268Z" fill="#091E42" fill-opacity="0.31"/>
</svg>
